<mxfile host="65bd71144e" modified="2020-11-02T12:35:13.093Z" agent="5.0 (Windows NT 10.0; Win64; x64) AppleWebKit/537.36 (KHTML, like Gecko) Code/1.50.1 Chrome/83.0.4103.122 Electron/9.2.1 Safari/537.36" etag="gIkSZWtaiWpGTzBYFRVa" version="13.6.5">
    <diagram id="3Mlo2eFPYSynK22PyFky" name="Page-1">
        <mxGraphModel dx="1326" dy="609" grid="1" gridSize="10" guides="1" tooltips="1" connect="1" arrows="1" fold="1" page="1" pageScale="1" pageWidth="827" pageHeight="1169" math="0" shadow="0">
            <root>
                <mxCell id="0"/>
                <mxCell id="1" parent="0"/>
                <mxCell id="6qmOmNayFVmGzbX6OEdd-30" style="edgeStyle=none;rounded=0;orthogonalLoop=1;jettySize=auto;html=1;dashed=1;startArrow=oval;startFill=1;sourcePerimeterSpacing=2;endArrow=classic;endFill=1;targetPerimeterSpacing=2;strokeColor=#55B880;strokeWidth=1;" parent="1" source="6qmOmNayFVmGzbX6OEdd-15" edge="1">
                    <mxGeometry relative="1" as="geometry">
                        <mxPoint x="390" y="190" as="targetPoint"/>
                    </mxGeometry>
                </mxCell>
                <mxCell id="6qmOmNayFVmGzbX6OEdd-15" value="(x1,y1)" style="text;html=1;align=center;verticalAlign=middle;resizable=0;points=[];autosize=1;" parent="1" vertex="1">
                    <mxGeometry x="364" y="130" width="50" height="20" as="geometry"/>
                </mxCell>
                <mxCell id="6qmOmNayFVmGzbX6OEdd-37" style="edgeStyle=none;rounded=0;orthogonalLoop=1;jettySize=auto;html=1;dashed=1;startArrow=oval;startFill=1;sourcePerimeterSpacing=2;endArrow=classic;endFill=1;targetPerimeterSpacing=2;strokeColor=#55B880;strokeWidth=1;" parent="1" source="6qmOmNayFVmGzbX6OEdd-26" edge="1">
                    <mxGeometry relative="1" as="geometry">
                        <mxPoint x="330" y="320" as="targetPoint"/>
                    </mxGeometry>
                </mxCell>
                <mxCell id="6qmOmNayFVmGzbX6OEdd-26" value="(x10,y10)" style="text;html=1;align=center;verticalAlign=middle;resizable=0;points=[];autosize=1;" parent="1" vertex="1">
                    <mxGeometry x="198" y="240" width="70" height="20" as="geometry"/>
                </mxCell>
                <mxCell id="6qmOmNayFVmGzbX6OEdd-25" style="edgeStyle=none;rounded=0;orthogonalLoop=1;jettySize=auto;html=1;startArrow=oval;startFill=1;sourcePerimeterSpacing=2;endArrow=classic;endFill=1;targetPerimeterSpacing=2;strokeColor=#55B880;strokeWidth=1;dashed=1;" parent="1" source="6qmOmNayFVmGzbX6OEdd-16" edge="1">
                    <mxGeometry relative="1" as="geometry">
                        <mxPoint x="380" y="230" as="targetPoint"/>
                    </mxGeometry>
                </mxCell>
                <mxCell id="6qmOmNayFVmGzbX6OEdd-16" value="(x2,y2)" style="text;html=1;align=center;verticalAlign=middle;resizable=0;points=[];autosize=1;" parent="1" vertex="1">
                    <mxGeometry x="505" y="160" width="50" height="20" as="geometry"/>
                </mxCell>
                <mxCell id="6qmOmNayFVmGzbX6OEdd-28" style="edgeStyle=none;rounded=0;orthogonalLoop=1;jettySize=auto;html=1;dashed=1;startArrow=oval;startFill=1;sourcePerimeterSpacing=2;endArrow=classic;endFill=1;targetPerimeterSpacing=2;strokeColor=#55B880;strokeWidth=1;" parent="1" source="6qmOmNayFVmGzbX6OEdd-17" edge="1">
                    <mxGeometry relative="1" as="geometry">
                        <mxPoint x="430" y="240" as="targetPoint"/>
                    </mxGeometry>
                </mxCell>
                <mxCell id="6qmOmNayFVmGzbX6OEdd-17" value="(x3,y3)" style="text;html=1;align=center;verticalAlign=middle;resizable=0;points=[];autosize=1;" parent="1" vertex="1">
                    <mxGeometry x="505" y="180" width="50" height="20" as="geometry"/>
                </mxCell>
                <mxCell id="6qmOmNayFVmGzbX6OEdd-29" style="edgeStyle=none;rounded=0;orthogonalLoop=1;jettySize=auto;html=1;dashed=1;startArrow=oval;startFill=1;sourcePerimeterSpacing=2;endArrow=classic;endFill=1;targetPerimeterSpacing=2;strokeColor=#55B880;strokeWidth=1;" parent="1" source="6qmOmNayFVmGzbX6OEdd-18" edge="1">
                    <mxGeometry relative="1" as="geometry">
                        <mxPoint x="450" y="260" as="targetPoint"/>
                    </mxGeometry>
                </mxCell>
                <mxCell id="6qmOmNayFVmGzbX6OEdd-18" value="(x4,y4)" style="text;html=1;align=center;verticalAlign=middle;resizable=0;points=[];autosize=1;" parent="1" vertex="1">
                    <mxGeometry x="505" y="200" width="50" height="20" as="geometry"/>
                </mxCell>
                <mxCell id="6qmOmNayFVmGzbX6OEdd-31" style="edgeStyle=none;rounded=0;orthogonalLoop=1;jettySize=auto;html=1;dashed=1;startArrow=oval;startFill=1;sourcePerimeterSpacing=2;endArrow=classic;endFill=1;targetPerimeterSpacing=2;strokeColor=#55B880;strokeWidth=1;" parent="1" source="6qmOmNayFVmGzbX6OEdd-19" edge="1">
                    <mxGeometry relative="1" as="geometry">
                        <mxPoint x="380" y="310" as="targetPoint"/>
                    </mxGeometry>
                </mxCell>
                <mxCell id="6qmOmNayFVmGzbX6OEdd-19" value="(x5,y5)" style="text;html=1;align=center;verticalAlign=middle;resizable=0;points=[];autosize=1;" parent="1" vertex="1">
                    <mxGeometry x="505" y="220" width="50" height="20" as="geometry"/>
                </mxCell>
                <mxCell id="6qmOmNayFVmGzbX6OEdd-32" style="edgeStyle=none;rounded=0;orthogonalLoop=1;jettySize=auto;html=1;dashed=1;startArrow=oval;startFill=1;sourcePerimeterSpacing=2;endArrow=classic;endFill=1;targetPerimeterSpacing=2;strokeColor=#55B880;strokeWidth=1;" parent="1" source="6qmOmNayFVmGzbX6OEdd-20" edge="1">
                    <mxGeometry relative="1" as="geometry">
                        <mxPoint x="420" y="320" as="targetPoint"/>
                    </mxGeometry>
                </mxCell>
                <mxCell id="6qmOmNayFVmGzbX6OEdd-20" value="(x6,y6)" style="text;html=1;align=center;verticalAlign=middle;resizable=0;points=[];autosize=1;" parent="1" vertex="1">
                    <mxGeometry x="505" y="240" width="50" height="20" as="geometry"/>
                </mxCell>
                <mxCell id="6qmOmNayFVmGzbX6OEdd-33" style="edgeStyle=none;rounded=0;orthogonalLoop=1;jettySize=auto;html=1;dashed=1;startArrow=oval;startFill=1;sourcePerimeterSpacing=2;endArrow=classic;endFill=1;targetPerimeterSpacing=2;strokeColor=#55B880;strokeWidth=1;" parent="1" source="6qmOmNayFVmGzbX6OEdd-21" edge="1">
                    <mxGeometry relative="1" as="geometry">
                        <mxPoint x="430" y="350" as="targetPoint"/>
                    </mxGeometry>
                </mxCell>
                <mxCell id="6qmOmNayFVmGzbX6OEdd-21" value="(x7,y7)" style="text;html=1;align=center;verticalAlign=middle;resizable=0;points=[];autosize=1;" parent="1" vertex="1">
                    <mxGeometry x="505" y="280" width="50" height="20" as="geometry"/>
                </mxCell>
                <mxCell id="6qmOmNayFVmGzbX6OEdd-34" style="edgeStyle=none;rounded=0;orthogonalLoop=1;jettySize=auto;html=1;dashed=1;startArrow=oval;startFill=1;sourcePerimeterSpacing=2;endArrow=classic;endFill=1;targetPerimeterSpacing=2;strokeColor=#55B880;strokeWidth=1;" parent="1" source="6qmOmNayFVmGzbX6OEdd-22" edge="1">
                    <mxGeometry relative="1" as="geometry">
                        <mxPoint x="340" y="240" as="targetPoint"/>
                    </mxGeometry>
                </mxCell>
                <mxCell id="6qmOmNayFVmGzbX6OEdd-22" value="(x8,y8)" style="text;html=1;align=center;verticalAlign=middle;resizable=0;points=[];autosize=1;" parent="1" vertex="1">
                    <mxGeometry x="208" y="180" width="50" height="20" as="geometry"/>
                </mxCell>
                <mxCell id="6qmOmNayFVmGzbX6OEdd-36" style="edgeStyle=none;rounded=0;orthogonalLoop=1;jettySize=auto;html=1;dashed=1;startArrow=oval;startFill=1;sourcePerimeterSpacing=2;endArrow=classic;endFill=1;targetPerimeterSpacing=2;strokeColor=#55B880;strokeWidth=1;" parent="1" source="6qmOmNayFVmGzbX6OEdd-23" edge="1">
                    <mxGeometry relative="1" as="geometry">
                        <mxPoint x="320.0000000000001" y="260" as="targetPoint"/>
                    </mxGeometry>
                </mxCell>
                <mxCell id="6qmOmNayFVmGzbX6OEdd-23" value="(x9,y9)" style="text;html=1;align=center;verticalAlign=middle;resizable=0;points=[];autosize=1;" parent="1" vertex="1">
                    <mxGeometry x="208" y="211" width="50" height="20" as="geometry"/>
                </mxCell>
                <mxCell id="6qmOmNayFVmGzbX6OEdd-39" style="edgeStyle=none;rounded=0;orthogonalLoop=1;jettySize=auto;html=1;dashed=1;startArrow=oval;startFill=1;sourcePerimeterSpacing=2;endArrow=classic;endFill=1;targetPerimeterSpacing=2;strokeColor=#55B880;strokeWidth=1;" parent="1" source="6qmOmNayFVmGzbX6OEdd-38" edge="1">
                    <mxGeometry relative="1" as="geometry">
                        <mxPoint x="320.0000000000001" y="350" as="targetPoint"/>
                    </mxGeometry>
                </mxCell>
                <mxCell id="6qmOmNayFVmGzbX6OEdd-38" value="(x11,y11)" style="text;html=1;align=center;verticalAlign=middle;resizable=0;points=[];autosize=1;" parent="1" vertex="1">
                    <mxGeometry x="203" y="271" width="60" height="20" as="geometry"/>
                </mxCell>
                <mxCell id="6qmOmNayFVmGzbX6OEdd-41" style="edgeStyle=none;rounded=0;orthogonalLoop=1;jettySize=auto;html=1;dashed=1;startArrow=oval;startFill=1;sourcePerimeterSpacing=2;endArrow=classic;endFill=1;targetPerimeterSpacing=2;strokeColor=#0000FF;strokeWidth=1;" parent="1" source="6qmOmNayFVmGzbX6OEdd-40" edge="1">
                    <mxGeometry relative="1" as="geometry">
                        <mxPoint x="380" y="210" as="targetPoint"/>
                    </mxGeometry>
                </mxCell>
                <mxCell id="6qmOmNayFVmGzbX6OEdd-40" value="L1" style="text;html=1;align=center;verticalAlign=middle;resizable=0;points=[];autosize=1;fillColor=#d5e8d4;strokeColor=#82b366;" parent="1" vertex="1">
                    <mxGeometry x="208" y="400" width="30" height="20" as="geometry"/>
                </mxCell>
                <mxCell id="6qmOmNayFVmGzbX6OEdd-43" style="edgeStyle=none;rounded=0;orthogonalLoop=1;jettySize=auto;html=1;dashed=1;startArrow=oval;startFill=1;sourcePerimeterSpacing=2;endArrow=classic;endFill=1;targetPerimeterSpacing=2;strokeColor=#0000FF;strokeWidth=1;" parent="1" source="6qmOmNayFVmGzbX6OEdd-42" edge="1">
                    <mxGeometry relative="1" as="geometry">
                        <mxPoint x="410" y="240" as="targetPoint"/>
                    </mxGeometry>
                </mxCell>
                <mxCell id="6qmOmNayFVmGzbX6OEdd-42" value="L2" style="text;html=1;align=center;verticalAlign=middle;resizable=0;points=[];autosize=1;fillColor=#d5e8d4;strokeColor=#82b366;" parent="1" vertex="1">
                    <mxGeometry x="208" y="430" width="30" height="20" as="geometry"/>
                </mxCell>
                <mxCell id="6qmOmNayFVmGzbX6OEdd-56" style="edgeStyle=none;rounded=0;orthogonalLoop=1;jettySize=auto;html=1;dashed=1;startArrow=oval;startFill=1;sourcePerimeterSpacing=2;endArrow=classic;endFill=1;targetPerimeterSpacing=2;strokeColor=#0000FF;strokeWidth=1;" parent="1" source="6qmOmNayFVmGzbX6OEdd-44" edge="1">
                    <mxGeometry relative="1" as="geometry">
                        <mxPoint x="370" y="310" as="targetPoint"/>
                    </mxGeometry>
                </mxCell>
                <mxCell id="6qmOmNayFVmGzbX6OEdd-44" value="L7" style="text;html=1;align=center;verticalAlign=middle;resizable=0;points=[];autosize=1;fillColor=#d5e8d4;strokeColor=#82b366;" parent="1" vertex="1">
                    <mxGeometry x="510" y="430" width="30" height="20" as="geometry"/>
                </mxCell>
                <mxCell id="6qmOmNayFVmGzbX6OEdd-59" style="edgeStyle=none;rounded=0;orthogonalLoop=1;jettySize=auto;html=1;dashed=1;startArrow=oval;startFill=1;sourcePerimeterSpacing=2;endArrow=classic;endFill=1;targetPerimeterSpacing=2;strokeColor=#0000FF;strokeWidth=1;" parent="1" source="6qmOmNayFVmGzbX6OEdd-45" edge="1">
                    <mxGeometry relative="1" as="geometry">
                        <mxPoint x="330" y="250" as="targetPoint"/>
                    </mxGeometry>
                </mxCell>
                <mxCell id="6qmOmNayFVmGzbX6OEdd-45" value="L10" style="text;html=1;align=center;verticalAlign=middle;resizable=0;points=[];autosize=1;fillColor=#d5e8d4;strokeColor=#82b366;" parent="1" vertex="1">
                    <mxGeometry x="505" y="520" width="40" height="20" as="geometry"/>
                </mxCell>
                <mxCell id="6qmOmNayFVmGzbX6OEdd-58" style="edgeStyle=none;rounded=0;orthogonalLoop=1;jettySize=auto;html=1;dashed=1;startArrow=oval;startFill=1;sourcePerimeterSpacing=2;endArrow=classic;endFill=1;targetPerimeterSpacing=2;strokeColor=#0000FF;strokeWidth=1;" parent="1" source="6qmOmNayFVmGzbX6OEdd-46" edge="1">
                    <mxGeometry relative="1" as="geometry">
                        <mxPoint x="360" y="240" as="targetPoint"/>
                    </mxGeometry>
                </mxCell>
                <mxCell id="6qmOmNayFVmGzbX6OEdd-46" value="L9" style="text;html=1;align=center;verticalAlign=middle;resizable=0;points=[];autosize=1;fillColor=#d5e8d4;strokeColor=#82b366;" parent="1" vertex="1">
                    <mxGeometry x="510" y="490" width="30" height="20" as="geometry"/>
                </mxCell>
                <mxCell id="6qmOmNayFVmGzbX6OEdd-57" style="edgeStyle=none;rounded=0;orthogonalLoop=1;jettySize=auto;html=1;dashed=1;startArrow=oval;startFill=1;sourcePerimeterSpacing=2;endArrow=classic;endFill=1;targetPerimeterSpacing=2;strokeColor=#0000FF;strokeWidth=1;" parent="1" source="6qmOmNayFVmGzbX6OEdd-47" edge="1">
                    <mxGeometry relative="1" as="geometry">
                        <mxPoint x="330" y="340" as="targetPoint"/>
                    </mxGeometry>
                </mxCell>
                <mxCell id="6qmOmNayFVmGzbX6OEdd-47" value="L8" style="text;html=1;align=center;verticalAlign=middle;resizable=0;points=[];autosize=1;fillColor=#d5e8d4;strokeColor=#82b366;" parent="1" vertex="1">
                    <mxGeometry x="510" y="460" width="30" height="20" as="geometry"/>
                </mxCell>
                <mxCell id="6qmOmNayFVmGzbX6OEdd-53" style="edgeStyle=none;rounded=0;orthogonalLoop=1;jettySize=auto;html=1;dashed=1;startArrow=oval;startFill=1;sourcePerimeterSpacing=2;endArrow=classic;endFill=1;targetPerimeterSpacing=2;strokeColor=#0000FF;strokeWidth=1;" parent="1" source="6qmOmNayFVmGzbX6OEdd-48" edge="1">
                    <mxGeometry relative="1" as="geometry">
                        <mxPoint x="400" y="320" as="targetPoint"/>
                    </mxGeometry>
                </mxCell>
                <mxCell id="6qmOmNayFVmGzbX6OEdd-48" value="L5" style="text;html=1;align=center;verticalAlign=middle;resizable=0;points=[];autosize=1;fillColor=#d5e8d4;strokeColor=#82b366;" parent="1" vertex="1">
                    <mxGeometry x="208" y="520" width="30" height="20" as="geometry"/>
                </mxCell>
                <mxCell id="6qmOmNayFVmGzbX6OEdd-52" style="edgeStyle=none;rounded=0;orthogonalLoop=1;jettySize=auto;html=1;dashed=1;startArrow=oval;startFill=1;sourcePerimeterSpacing=2;endArrow=classic;endFill=1;targetPerimeterSpacing=2;strokeColor=#0000FF;strokeWidth=1;" parent="1" source="6qmOmNayFVmGzbX6OEdd-49" edge="1">
                    <mxGeometry relative="1" as="geometry">
                        <mxPoint x="380" y="290" as="targetPoint"/>
                    </mxGeometry>
                </mxCell>
                <mxCell id="6qmOmNayFVmGzbX6OEdd-49" value="L4" style="text;html=1;align=center;verticalAlign=middle;resizable=0;points=[];autosize=1;fillColor=#d5e8d4;strokeColor=#82b366;" parent="1" vertex="1">
                    <mxGeometry x="208" y="490" width="30" height="20" as="geometry"/>
                </mxCell>
                <mxCell id="6qmOmNayFVmGzbX6OEdd-51" style="edgeStyle=none;rounded=0;orthogonalLoop=1;jettySize=auto;html=1;dashed=1;startArrow=oval;startFill=1;sourcePerimeterSpacing=2;endArrow=classic;endFill=1;targetPerimeterSpacing=2;strokeColor=#0000FF;strokeWidth=1;" parent="1" source="6qmOmNayFVmGzbX6OEdd-50" edge="1">
                    <mxGeometry relative="1" as="geometry">
                        <mxPoint x="440" y="260" as="targetPoint"/>
                    </mxGeometry>
                </mxCell>
                <mxCell id="6qmOmNayFVmGzbX6OEdd-50" value="L3" style="text;html=1;align=center;verticalAlign=middle;resizable=0;points=[];autosize=1;fillColor=#d5e8d4;strokeColor=#82b366;" parent="1" vertex="1">
                    <mxGeometry x="208" y="460" width="30" height="20" as="geometry"/>
                </mxCell>
                <mxCell id="6qmOmNayFVmGzbX6OEdd-55" style="edgeStyle=none;rounded=0;orthogonalLoop=1;jettySize=auto;html=1;dashed=1;startArrow=oval;startFill=1;sourcePerimeterSpacing=2;endArrow=classic;endFill=1;targetPerimeterSpacing=2;strokeColor=#0000FF;strokeWidth=1;" parent="1" source="6qmOmNayFVmGzbX6OEdd-54" edge="1">
                    <mxGeometry relative="1" as="geometry">
                        <mxPoint x="430" y="330" as="targetPoint"/>
                    </mxGeometry>
                </mxCell>
                <mxCell id="6qmOmNayFVmGzbX6OEdd-54" value="L6" style="text;html=1;align=center;verticalAlign=middle;resizable=0;points=[];autosize=1;fillColor=#d5e8d4;strokeColor=#82b366;" parent="1" vertex="1">
                    <mxGeometry x="510" y="395.5" width="30" height="20" as="geometry"/>
                </mxCell>
                <mxCell id="6qmOmNayFVmGzbX6OEdd-164" value="Text" style="text;html=1;align=center;verticalAlign=middle;resizable=0;points=[];autosize=1;" parent="1" vertex="1">
                    <mxGeometry x="353" y="1080" width="40" height="20" as="geometry"/>
                </mxCell>
                <mxCell id="6qmOmNayFVmGzbX6OEdd-237" value="" style="group" parent="1" vertex="1" connectable="0">
                    <mxGeometry x="320" y="190" width="130" height="160" as="geometry"/>
                </mxCell>
                <mxCell id="6qmOmNayFVmGzbX6OEdd-4" value="" style="endArrow=oval;html=1;fillColor=#f8cecc;strokeColor=#b85450;startArrow=oval;startFill=1;endFill=1;strokeWidth=2;targetPerimeterSpacing=4;sourcePerimeterSpacing=4;startSize=8;endSize=8;" parent="6qmOmNayFVmGzbX6OEdd-237" edge="1">
                    <mxGeometry width="50" height="50" relative="1" as="geometry">
                        <mxPoint x="60" y="40" as="sourcePoint"/>
                        <mxPoint x="70" as="targetPoint"/>
                    </mxGeometry>
                </mxCell>
                <mxCell id="6qmOmNayFVmGzbX6OEdd-5" value="" style="endArrow=oval;html=1;fillColor=#f8cecc;strokeColor=#55B880;startArrow=oval;startFill=1;endFill=1;strokeWidth=2;targetPerimeterSpacing=4;sourcePerimeterSpacing=4;startSize=8;endSize=8;" parent="6qmOmNayFVmGzbX6OEdd-237" edge="1">
                    <mxGeometry width="50" height="50" relative="1" as="geometry">
                        <mxPoint x="60" y="40" as="sourcePoint"/>
                        <mxPoint x="110" y="50" as="targetPoint"/>
                    </mxGeometry>
                </mxCell>
                <mxCell id="6qmOmNayFVmGzbX6OEdd-6" value="" style="endArrow=oval;html=1;fillColor=#f8cecc;strokeColor=#A680B8;startArrow=oval;startFill=1;endFill=1;strokeWidth=2;targetPerimeterSpacing=4;sourcePerimeterSpacing=4;startSize=8;endSize=8;" parent="6qmOmNayFVmGzbX6OEdd-237" edge="1">
                    <mxGeometry width="50" height="50" relative="1" as="geometry">
                        <mxPoint x="110" y="50" as="sourcePoint"/>
                        <mxPoint x="130" y="70" as="targetPoint"/>
                    </mxGeometry>
                </mxCell>
                <mxCell id="6qmOmNayFVmGzbX6OEdd-7" value="" style="endArrow=oval;html=1;fillColor=#f8cecc;strokeColor=#b85450;startArrow=oval;startFill=1;endFill=1;movable=0;resizable=0;rotatable=0;deletable=0;editable=0;connectable=0;strokeWidth=2;targetPerimeterSpacing=4;sourcePerimeterSpacing=4;startSize=8;endSize=8;" parent="6qmOmNayFVmGzbX6OEdd-237" edge="1">
                    <mxGeometry width="50" height="50" relative="1" as="geometry">
                        <mxPoint x="60" y="40" as="sourcePoint"/>
                        <mxPoint x="20" y="50" as="targetPoint"/>
                    </mxGeometry>
                </mxCell>
                <mxCell id="6qmOmNayFVmGzbX6OEdd-8" value="" style="endArrow=oval;html=1;fillColor=#f8cecc;strokeColor=#A680B8;startArrow=oval;startFill=1;endFill=1;movable=0;resizable=0;rotatable=0;deletable=0;editable=0;connectable=0;strokeWidth=2;targetPerimeterSpacing=4;sourcePerimeterSpacing=4;startSize=8;endSize=8;" parent="6qmOmNayFVmGzbX6OEdd-237" edge="1">
                    <mxGeometry width="50" height="50" relative="1" as="geometry">
                        <mxPoint y="70" as="sourcePoint"/>
                        <mxPoint x="20" y="50" as="targetPoint"/>
                    </mxGeometry>
                </mxCell>
                <mxCell id="6qmOmNayFVmGzbX6OEdd-9" value="" style="endArrow=oval;html=1;fillColor=#f8cecc;strokeColor=#A680B8;startArrow=oval;startFill=1;endFill=1;movable=0;resizable=0;rotatable=0;deletable=0;editable=0;connectable=0;strokeWidth=2;targetPerimeterSpacing=4;sourcePerimeterSpacing=4;startSize=8;endSize=8;" parent="6qmOmNayFVmGzbX6OEdd-237" edge="1">
                    <mxGeometry width="50" height="50" relative="1" as="geometry">
                        <mxPoint x="60" y="120" as="sourcePoint"/>
                        <mxPoint x="60" y="40" as="targetPoint"/>
                    </mxGeometry>
                </mxCell>
                <mxCell id="6qmOmNayFVmGzbX6OEdd-10" value="" style="endArrow=oval;html=1;fillColor=#f8cecc;strokeColor=#A680B8;startArrow=oval;startFill=1;endFill=1;movable=0;resizable=0;rotatable=0;deletable=0;editable=0;connectable=0;strokeWidth=2;targetPerimeterSpacing=4;sourcePerimeterSpacing=4;startSize=8;endSize=8;" parent="6qmOmNayFVmGzbX6OEdd-237" edge="1">
                    <mxGeometry width="50" height="50" relative="1" as="geometry">
                        <mxPoint x="10" y="130" as="sourcePoint"/>
                        <mxPoint x="60" y="120" as="targetPoint"/>
                    </mxGeometry>
                </mxCell>
                <mxCell id="6qmOmNayFVmGzbX6OEdd-11" value="" style="endArrow=oval;html=1;fillColor=#f8cecc;strokeColor=#A680B8;startArrow=oval;startFill=1;endFill=1;movable=0;resizable=0;rotatable=0;deletable=0;editable=0;connectable=0;strokeWidth=2;targetPerimeterSpacing=4;sourcePerimeterSpacing=4;startSize=8;endSize=8;" parent="6qmOmNayFVmGzbX6OEdd-237" edge="1">
                    <mxGeometry width="50" height="50" relative="1" as="geometry">
                        <mxPoint x="10" y="130" as="sourcePoint"/>
                        <mxPoint y="160" as="targetPoint"/>
                    </mxGeometry>
                </mxCell>
                <mxCell id="6qmOmNayFVmGzbX6OEdd-12" value="" style="endArrow=oval;html=1;fillColor=#f8cecc;strokeColor=#A680B8;startArrow=oval;startFill=1;endFill=1;movable=0;resizable=0;rotatable=0;deletable=0;editable=0;connectable=0;strokeWidth=2;targetPerimeterSpacing=4;sourcePerimeterSpacing=4;startSize=8;endSize=8;" parent="6qmOmNayFVmGzbX6OEdd-237" edge="1">
                    <mxGeometry width="50" height="50" relative="1" as="geometry">
                        <mxPoint x="100" y="130" as="sourcePoint"/>
                        <mxPoint x="60" y="120" as="targetPoint"/>
                    </mxGeometry>
                </mxCell>
                <mxCell id="6qmOmNayFVmGzbX6OEdd-13" value="" style="endArrow=oval;html=1;fillColor=#f8cecc;strokeColor=#A680B8;startArrow=oval;startFill=1;endFill=1;movable=0;resizable=0;rotatable=0;deletable=0;editable=0;connectable=0;strokeWidth=2;targetPerimeterSpacing=4;sourcePerimeterSpacing=4;startSize=8;endSize=8;" parent="6qmOmNayFVmGzbX6OEdd-237" edge="1">
                    <mxGeometry width="50" height="50" relative="1" as="geometry">
                        <mxPoint x="100" y="130" as="sourcePoint"/>
                        <mxPoint x="110" y="160" as="targetPoint"/>
                    </mxGeometry>
                </mxCell>
                <mxCell id="2" value="" style="group" vertex="1" connectable="0" parent="1">
                    <mxGeometry x="30" y="630" width="120" height="140" as="geometry"/>
                </mxCell>
                <mxCell id="6qmOmNayFVmGzbX6OEdd-240" value="" style="endArrow=oval;html=1;fillColor=#f8cecc;strokeColor=#55B880;startArrow=oval;startFill=1;endFill=1;strokeWidth=2;targetPerimeterSpacing=4;sourcePerimeterSpacing=4;startSize=8;endSize=8;" parent="2" edge="1">
                    <mxGeometry width="50" height="50" relative="1" as="geometry">
                        <mxPoint x="59.99769230769226" y="30" as="sourcePoint"/>
                        <mxPoint x="100" y="50" as="targetPoint"/>
                    </mxGeometry>
                </mxCell>
                <mxCell id="6qmOmNayFVmGzbX6OEdd-241" value="" style="endArrow=oval;html=1;fillColor=#f8cecc;strokeColor=#A680B8;startArrow=oval;startFill=1;endFill=1;strokeWidth=2;targetPerimeterSpacing=4;sourcePerimeterSpacing=4;startSize=8;endSize=8;" parent="2" edge="1">
                    <mxGeometry width="50" height="50" relative="1" as="geometry">
                        <mxPoint x="120" y="40" as="sourcePoint"/>
                        <mxPoint x="100" y="50" as="targetPoint"/>
                    </mxGeometry>
                </mxCell>
                <mxCell id="6qmOmNayFVmGzbX6OEdd-242" value="" style="endArrow=oval;html=1;fillColor=#f8cecc;strokeColor=#b85450;startArrow=oval;startFill=1;endFill=1;movable=0;resizable=0;rotatable=0;deletable=0;editable=0;connectable=0;strokeWidth=2;targetPerimeterSpacing=4;sourcePerimeterSpacing=4;startSize=8;endSize=8;" parent="2" edge="1">
                    <mxGeometry width="50" height="50" relative="1" as="geometry">
                        <mxPoint x="60" y="30" as="sourcePoint"/>
                        <mxPoint x="20" y="50" as="targetPoint"/>
                    </mxGeometry>
                </mxCell>
                <mxCell id="6qmOmNayFVmGzbX6OEdd-243" value="" style="endArrow=oval;html=1;fillColor=#f8cecc;strokeColor=#A680B8;startArrow=oval;startFill=1;endFill=1;movable=0;resizable=0;rotatable=0;deletable=0;editable=0;connectable=0;strokeWidth=2;targetPerimeterSpacing=4;sourcePerimeterSpacing=4;startSize=8;endSize=8;" parent="2" edge="1">
                    <mxGeometry width="50" height="50" relative="1" as="geometry">
                        <mxPoint y="40" as="sourcePoint"/>
                        <mxPoint x="20" y="50" as="targetPoint"/>
                    </mxGeometry>
                </mxCell>
                <mxCell id="6qmOmNayFVmGzbX6OEdd-244" value="" style="endArrow=oval;html=1;fillColor=#f8cecc;strokeColor=#A680B8;startArrow=oval;startFill=1;endFill=1;movable=0;resizable=0;rotatable=0;deletable=0;editable=0;connectable=0;strokeWidth=2;targetPerimeterSpacing=4;sourcePerimeterSpacing=4;startSize=8;endSize=8;" parent="2" edge="1">
                    <mxGeometry width="50" height="50" relative="1" as="geometry">
                        <mxPoint x="60" y="90" as="sourcePoint"/>
                        <mxPoint x="60" y="30" as="targetPoint"/>
                    </mxGeometry>
                </mxCell>
                <mxCell id="6qmOmNayFVmGzbX6OEdd-245" value="" style="endArrow=oval;html=1;fillColor=#f8cecc;strokeColor=#A680B8;startArrow=oval;startFill=1;endFill=1;movable=0;resizable=0;rotatable=0;deletable=0;editable=0;connectable=0;strokeWidth=2;targetPerimeterSpacing=4;sourcePerimeterSpacing=4;startSize=8;endSize=8;" parent="2" edge="1">
                    <mxGeometry width="50" height="50" relative="1" as="geometry">
                        <mxPoint x="30" y="110" as="sourcePoint"/>
                        <mxPoint x="60" y="90" as="targetPoint"/>
                    </mxGeometry>
                </mxCell>
                <mxCell id="6qmOmNayFVmGzbX6OEdd-246" value="" style="endArrow=oval;html=1;fillColor=#f8cecc;strokeColor=#A680B8;startArrow=oval;startFill=1;endFill=1;movable=0;resizable=0;rotatable=0;deletable=0;editable=0;connectable=0;strokeWidth=2;targetPerimeterSpacing=4;sourcePerimeterSpacing=4;startSize=8;endSize=8;" parent="2" edge="1">
                    <mxGeometry width="50" height="50" relative="1" as="geometry">
                        <mxPoint x="30" y="110" as="sourcePoint"/>
                        <mxPoint x="30" y="140" as="targetPoint"/>
                    </mxGeometry>
                </mxCell>
                <mxCell id="6qmOmNayFVmGzbX6OEdd-247" value="" style="endArrow=oval;html=1;fillColor=#f8cecc;strokeColor=#A680B8;startArrow=oval;startFill=1;endFill=1;movable=0;resizable=0;rotatable=0;deletable=0;editable=0;connectable=0;strokeWidth=2;targetPerimeterSpacing=4;sourcePerimeterSpacing=4;startSize=8;endSize=8;" parent="2" edge="1">
                    <mxGeometry width="50" height="50" relative="1" as="geometry">
                        <mxPoint x="90" y="110" as="sourcePoint"/>
                        <mxPoint x="60" y="90" as="targetPoint"/>
                    </mxGeometry>
                </mxCell>
                <mxCell id="6qmOmNayFVmGzbX6OEdd-248" value="" style="endArrow=oval;html=1;fillColor=#f8cecc;strokeColor=#A680B8;startArrow=oval;startFill=1;endFill=1;movable=0;resizable=0;rotatable=0;deletable=0;editable=0;connectable=0;strokeWidth=2;targetPerimeterSpacing=4;sourcePerimeterSpacing=4;startSize=8;endSize=8;" parent="2" edge="1">
                    <mxGeometry width="50" height="50" relative="1" as="geometry">
                        <mxPoint x="90" y="110" as="sourcePoint"/>
                        <mxPoint x="90" y="140" as="targetPoint"/>
                    </mxGeometry>
                </mxCell>
                <mxCell id="zmI7ZsUh0PBgTFGTbGeC-2" value="" style="endArrow=oval;html=1;fillColor=#f8cecc;strokeColor=#A680B8;startArrow=oval;startFill=1;endFill=1;strokeWidth=2;targetPerimeterSpacing=4;sourcePerimeterSpacing=4;startSize=8;endSize=8;" parent="2" edge="1">
                    <mxGeometry width="50" height="50" relative="1" as="geometry">
                        <mxPoint x="60" y="30" as="sourcePoint"/>
                        <mxPoint x="60" as="targetPoint"/>
                    </mxGeometry>
                </mxCell>
                <mxCell id="25" value="" style="ellipse;whiteSpace=wrap;html=1;aspect=fixed;" vertex="1" parent="1">
                    <mxGeometry x="72.5" y="600" width="35" height="35" as="geometry"/>
                </mxCell>
            </root>
        </mxGraphModel>
    </diagram>
</mxfile>